<svg xmlns="http://www.w3.org/2000/svg" viewBox="0 0 512 512" role="img" aria-label="engram logo">
  <defs>
    <linearGradient id="bg" x1="0" y1="0" x2="1" y2="1">
      <stop offset="0" stop-color="#3a2d6d"/>
      <stop offset="1" stop-color="#6c5ce7"/>
    </linearGradient>
    <radialGradient id="glow" cx="0.5" cy="0.5" r="0.5">
      <stop offset="0" stop-color="#a99bff"/>
      <stop offset="1" stop-color="#6c5ce7"/>
    </radialGradient>
  </defs>
  <rect width="512" height="512" rx="112" fill="url(#bg)"/>
  <g stroke="#c9c0ff" stroke-width="6" stroke-linecap="round" opacity="0.7">
    <line x1="170" y1="150" x2="300" y2="120"/>
    <line x1="300" y1="120" x2="372" y2="220"/>
    <line x1="372" y1="220" x2="300" y2="330"/>
    <line x1="300" y1="330" x2="180" y2="350"/>
    <line x1="180" y1="350" x2="150" y2="240"/>
    <line x1="150" y1="240" x2="170" y2="150"/>
    <line x1="150" y1="240" x2="300" y2="120"/>
    <line x1="372" y1="220" x2="180" y2="350"/>
    <line x1="170" y1="150" x2="300" y2="330"/>
  </g>
  <g fill="url(#glow)" stroke="#ffffff" stroke-width="4">
    <circle cx="170" cy="150" r="22"/>
    <circle cx="300" cy="120" r="28"/>
    <circle cx="372" cy="220" r="20"/>
    <circle cx="300" cy="330" r="26"/>
    <circle cx="180" cy="350" r="22"/>
    <circle cx="150" cy="240" r="18"/>
  </g>
</svg>
