<svg xmlns="http://www.w3.org/2000/svg" viewBox="0 0 1200 630" role="img" aria-label="engram">
  <defs>
    <linearGradient id="bg" x1="0" y1="0" x2="1" y2="1">
      <stop offset="0" stop-color="#2a2150"/>
      <stop offset="1" stop-color="#5b4bd0"/>
    </linearGradient>
    <radialGradient id="glow" cx="0.5" cy="0.5" r="0.5">
      <stop offset="0" stop-color="#b7acff"/>
      <stop offset="1" stop-color="#6c5ce7"/>
    </radialGradient>
  </defs>
  <rect width="1200" height="630" fill="url(#bg)"/>
  <g stroke="#c9c0ff" stroke-width="3" stroke-linecap="round" opacity="0.55">
    <line x1="250" y1="200" x2="430" y2="150"/>
    <line x1="430" y1="150" x2="540" y2="300"/>
    <line x1="540" y1="300" x2="430" y2="450"/>
    <line x1="430" y1="450" x2="260" y2="430"/>
    <line x1="260" y1="430" x2="230" y2="280"/>
    <line x1="230" y1="280" x2="250" y2="200"/>
    <line x1="230" y1="280" x2="430" y2="150"/>
    <line x1="540" y1="300" x2="260" y2="430"/>
  </g>
  <g fill="url(#glow)" stroke="#ffffff" stroke-width="3">
    <circle cx="250" cy="200" r="16"/>
    <circle cx="430" cy="150" r="20"/>
    <circle cx="540" cy="300" r="14"/>
    <circle cx="430" cy="450" r="18"/>
    <circle cx="260" cy="430" r="16"/>
    <circle cx="230" cy="280" r="12"/>
  </g>
  <text x="660" y="300" font-family="Georgia, 'Times New Roman', serif" font-size="120" fill="#ffffff" font-weight="700">engram</text>
  <text x="664" y="365" font-family="-apple-system, Segoe UI, Helvetica, Arial, sans-serif" font-size="34" fill="#c9c0ff">NeuroAI → Brain–Computer Interfaces</text>
</svg>
